<svg xmlns="http://www.w3.org/2000/svg" viewBox="0 0 1200 500">
<defs><linearGradient id="g" x1="0" y1="0" x2="1" y2="0">
<stop stop-color="#FF4FA3"/><stop offset=".5" stop-color="#2EA8FF"/><stop offset="1" stop-color="#18E0A4"/>
</linearGradient><filter id="glow"><feGaussianBlur stdDeviation="9" result="b"/><feMerge><feMergeNode in="b"/><feMergeNode in="SourceGraphic"/></feMerge></filter></defs>
<path d="M35 430 Q300 365 580 420 T1165 385" fill="none" stroke="url(#g)" stroke-width="3" opacity=".8" filter="url(#glow)"/>
<g fill="#F5FFF9"><path d="M110 90l4 12 12 4-12 4-4 12-4-12-12-4 12-4z"/><path d="M1010 105l4 12 12 4-12 4-4 12-4-12-12-4 12-4z"/><path d="M1090 330l3 9 9 3-9 3-3 9-3-9-9-3 9-3z"/></g>
</svg>